<mxfile host="app.diagrams.net" modified="2023-10-09T19:04:46.368Z" agent="Mozilla/5.0 (Windows NT 10.0; Win64; x64; rv:109.0) Gecko/20100101 Firefox/118.0" etag="kPkIWA6LpuAqevRGwKcY" version="21.7.5" type="device">
  <diagram name="PÃ¡gina-1" id="4_TF6qjZz0TVoepGeS3n">
    <mxGraphModel dx="880" dy="424" grid="1" gridSize="10" guides="1" tooltips="1" connect="1" arrows="1" fold="1" page="1" pageScale="1" pageWidth="827" pageHeight="569" math="0" shadow="0">
      <root>
        <mxCell id="0" />
        <mxCell id="1" parent="0" />
        <mxCell id="1QslWDdGMrU6c5e0tJ6x-1" value="" style="shape=image;verticalLabelPosition=bottom;labelBackgroundColor=default;verticalAlign=top;aspect=fixed;imageAspect=0;image=data:image/png,iVBORw0KGgoAAAANSUhEUgAAAPMAAABbCAYAAACmubO8AAAABHNCSVQICAgIfAhkiAAAAAlwSFlzAAAN/wAADf8B9IqyiQAAABl0RVh0U29mdHdhcmUAd3d3Lmlua3NjYXBlLm9yZ5vuPBoAACAASURBVHic7Z17rGXXXd8/v7X3uffcx8x4PPHYPiF2PMGYQJumoVBIgSYQQYtaJyQVr4RHSMqNEARRAYI0YCoKSgshraWCboKiQIFKSA0QKSS0hqR5Ggfj2EqxncTJjMc+87jve957r7V+/WPtte++Z859zHgmZ+zur7R0ztmvte6++7t+77VFVZkazm98D7ccvw0PnNvi4kMP8fFPfpLPfe4Rnnz6aTpr673+dr9nB6ORuiwD5wTRD+cbH5neoGvUuD6RTrX3s1tvZfH4d7MInDjGyed/Pa+7ZY07n1jl82bAk/mQjTynr8qIhEw9DgWQqY67Ro3rEGaanWefewS+sAJdoAm0boJWiyNHj4II1lpy77HqydVjUXKmqEnUqHEdY6pkfuyxz8PDD8MTa+CB48CJG2nOzYEIuXehqeIIzdZkrlFjIqaqZj/2+KO8SJosNBpw9OVwcwOSBKce6z25DxI5V0+OkqHYadr4NWpcx5gqmU8/+SSPyhz/IE1oHlmE7h2wsUFvMKA3GjK0Obl32EIiW1UsfppDrlHjusVUybyyts6X9DRiDF9vDM31dVhdYWV9je1ul9xZvIADnIIVxU5zwDVqXMeYKplHea4b3Y6evXCeZK7JrdmQja1NnlpdoZMPsYlgvcEBVoNZ7Wo1u0aNiZA94syvBebjMWz25IknviBnz5yVM2fOyMbqmmxsrko+yL3zjjzLvFoVb1TIHF7VGKPirTcGcJCoU5HcqhoVVUTQ1J9fe8tJmb2r2Wxy9MgRZueaDIZD1jc22OpuM8iywvnlcd4HMqMcOXHiV7EeUSciYgwgHnE4STQVxYvLMtQ7URBrM/E2qOeZdVhn8dZ752yu1lrr1aq6zHucYh3Kw3+Zb3zsK/EPqFHjamEvMr+H4FsWgsfbAMJQjZ55Up4886Rpn2ubQa8v5M50uh2j3ol6jM1GRr2K8WpQNXiVNBGTSio2y43Lc4Oq4NUMet0XJs4vJiLMmBmShuAzS25z8lGOeod6BfWIU0QglYS5NFnLR1a8tQb1Rp0K1hq8ihFMihjvnPjcGnVqstFQRlmGqjLKcwajIaM8Z5hl5M6SOcfIWxyQq+dpsv/zQbv6iq/Yf6FGjauAyWr2yMPshKhVU5C7bpfbjxyh2ZxlfW0Nbx3zm/OMRiPwHptleO9R6wGPeMUgNJIU9R47ykAVUWikBsmdGhVSkyAGkjnBO082HAneoQqiHus8xnkMwtH5edR6bDYCr6h3iAN1Dm9zjIJ6jzoPTsnzOXr9PtZa/HDAyOaotXi09JhbtPSa1062Gs9GTCTzo5/8NKde+AJmT902+azWjdw8bDE7O8uw12d2ZoZBv8dolCPOowouy0A9KBgEI6DO45sWVElNgjHAKAMMqYIKpMbgnKMx01C8YiTBoNg8E7wiXlloNhEP6hfw3uPynFQMOC8uz8B6vHfBa+aVfr+HExgMBpCPsIBFydSTqWOkjqwkcp2YUuPZiYlkfuBv/4b22TPccfYOTp06BV918+4EynMbbG1ssrm1xag/oNvp0u/18c5h80IyZxZVjygkiUG8isst6jyJMaRi2O52weYYNaCKARIxeO/Jswy8xxiD8UqeW1CPUchGYaJIxaCq5MMRRhW1DvUeo4qzDnxB5l6PXr/PKMvoDAZ0RgOGWcbQWQY+EtnvhL+kJnONZx8mkvmpp87S3dri7Nmn+Owjn+XI/BEW54M/LBsO6XX79Hrb9PtDNMvpDwbkowwQXDYC8agVEhOkskaiuWADGw1zw6jfJ1EQJZBWQLxincVleZgMgsTFWauogkdmUASDAbxzuNyCDyp9guLD8YHMzpHllizPUVWGecYwG5F7T+bsjmqtQSI7FFtr2TWehZhI5vW1DQa9PqJCmiYYMeAVby3Oe2yeY61FnRPvLM568B6Q8ClaqMFBMqvf2R+2B6mpzmqKYFRAFVUPHry3qPc450AB6/Cq4B2ioolqYSt7QIN9XpBZ1ZcSOkhmj/eKV48SQltOfenscqo7SSlosKNrm7nGsxATyZxn+Uidw3uPR1GnuNwBLjievEe8R9XjnUdVwXlUBFFFtCCaEr4X5BOC3Ry2Ac7SEIMooKAU5zmP9Q51iuLBObwCzmFUir4DUVENji7vUR8nBI96RIpJxKkSutCS0DHM5UIP2OK7Fttr1Hi2YSKZFZ+Ncq/eO5x1OOeC80qL71EqqgYyBfIUJPWogDjCfu8LilDasKgXAHGKM6YkvS9I733oxxcONLU+yExVcIp4Xxwbtonf+R7GtPNdKY4lCPk4Gl+Q2KO4yu+azDWerZhI5sz7HOut8w71zlvrUuu8eJeLU0Wdw5VqrQuqsVNUKNTsQFSlULV3fWrBqvDbJ0ZD+AnRgrzOOpwGVdlH1dlHovtdxBWl3EYRxlJPOIeC2DvTSUHYHeJGckfJDVIr2TWelZhIZu+cL0gsTp1a69R5i3dOc+tRH8gcSaXe40NOB1LYsSh4H/XnKvF2ficCQhrs6iJ7Rb0Tq7qjDRAlf0Hg+Ft3rlOq12H2CGOK+ws7GBgjbeW3KiLBXS8V4teo8WzCZDVbVa3zaoO6q7mzanMrXh3WOrwP9nRQdyOnCpVYfWC109IOxjtQQSBMAhr2pSIkuKLPQpoqOFdI5qgml+SlIGpwiPloh5cTiO4Qfoy6qjskrZI1yOKg5gMYqRcxqfHsxEQyD5z8XpK72UxVwOKtM1ZyEMgVcZobckjUmwxQVQHw3hvVTLCFIFYVJeRiJ6iQg0/V5LlKgpUXnWj9+gtvPPENRgySCkYScmfpDYb0hwOGeU7mcjLnyJzFei9ePU+vrPxYghoFURsi4BZrEhB1IfXU4oTgDDdJgrgDOJqUnwbx+thVu8M1anyFsFdu9lcEP/nyV/3p19zU+s5GmmDSBkmakNucrW6XTr9PPxsxsBlDmzPIc6xzOFU+8PcPHp3aoGvUuE4x1RJIMYkmiVGTNkiSBEmSkPWVpkhiwJiQNCKCMaYIe9XuqRo1JmGqZDapUdNoqKQJkqYkaUIiiskSJE0wLsGQYEiLrLGQjFKjRo1LMd2ldtNUpZGopAkmDZJZ8IHIaYpxFlGDeIN4QTDU/qkaNSZjupJZEkzSUMTgMSFt1KRIkiImAWNAEow4xJhA5mkOuEaN6xjTlcwNQVKDMSEHPGk0SG3xPU1IXEriHaIJoh6jHk0OvmyNGv8/YrqS2aRq0oYmiSFpNIKarUCSImmC2EL1diY4wJKgbteoUeNSTJXMmhiVmVQlSdA0QUyCV4emBk0TNBHUGEgTUIdIglo3zSHXqHHdYrqSOYSj1KQJSRKcXon64AwzBjEJSSPBaJDOeIMxdbJljRqTMGU126gkRkkSSNNA4MSAKYjdSBHvQKQgtwlLEdWoUeMSTDk0ZVQaqYqJoSkDLoGGIUkSSAt72SWlE0xqD1iNGhMxVTInSULSSMMaYcZgEoOZSUizBGmkGBtUbUkMxhXHpLWaXaPGJExXMhujmqYaSNpAAZMoks5i0lGIN6cWsSkYhxhXx5lr1NgD0yVzIiTGaJS+SZJgRTGphDBUIa0lNm+m+w7aGjWuY0zZm52qmWloIgZpGCQpPNdJgiYJkhrEJUgiO86xGjVqTMR0q6ZSo6HFFE5BfFFkEXO1EwmfaYJoitTvgaxRYyKmbTMjSaIkBpNIEZKKBDaY1IBNCpWb0KSWzjVqTMK0yawmCVVTYtJgH7sEk86QFNLamASR4NVW46BOAKtRYyKmbDM3MI0GxqQkaXB2JQ7SJMUkOwsWSBJSPVOTYrVWs2vUmIQprzSCihGVRIqXxoZPNYIY8CIh+ys1kAskAlqr2TVqTMJ01WwRwYiIEUySYJIUcY5AbsEkgkkFk4MxEpbDrQPNNWpMxHQzwMSIkIgxaShxFAEJ8WURg5EEIQEMIgkitl4Kt0aNPTBdnVVAkvAZ1OxiGzvfQwtqdzynRo0al2K6NnNYKkgM8YXsQho0bxJjiiYkRgpOC1KzuUaNiZhyOqeKiJFgL8cQVFqo1AaVQjQrQLCZpVaza9SYiOvAAaYS376uBhBFTfBqFyIbEkGM7KjjNWrUuARTpYbBlI4vjb8TwciOSr1LtY6SukaNGpdg6lVTxiRijCFNGoHYbsebLVE0i4Tf1DZzjRp7YboOsMIoDrYwQSIXjjAk2siEAoxCWteoUWMyroPQVCCuxrCUqdjHVa26sr9GjRqXYsrLBhkxkopIWI1TZUe9lqhaS3iTBYWaXdvMNa4ES2nrq4BfBn592bafnPZ4rgWm7M1OhESKFz3KjlQuUjfjbyl+q8RXp9eocTgUJH4L8LPAPPCnQE3mqw+PFDazMTuebYD4hjghkDl6uI2pY1M19sdS2poBXgu8CfgOdpuT+VQG9RXAlMlcyeFUKWRu8bbHitGsgPOKFskjNWqMYyltnQReDfwr4JXAkT0Orcl8LWCMEZMkkqYpSVw2KLFhsfsYnkqKtz8mQXI7Xy+CX2M3ltLWS4C/BRqHOPw5S+Ype7NVEgm+bGNizRQiosFUNkVEChXRwoyu3+paYwzLtv0I8MFDHl6T+VpAEbzGT1+pkDKlA6wwloMmrvXbaWrsiTcD7UMcl13rgUwLUyVzSBnZcVkrRpBEFBGVIIxVqbi260qLGpOxbNtrwM8d4tDnLJmnvDiBSGIkmMgC5edYC4JZQ6upXGNvvJ9QY7ffUzI66CJLaWsWuBm4sWg5sF1ty7a9r7q+lLYEuAV4IfDIsm33DjH+8TGcAlrA84txtIHTwKPLtt0ZP2e672fGiBiR+IbHuND9rtzs8rNYhUTqOHONyVi27dFS2moTHv69MFEyL6WtOeCnge8CvhWY3a+vpbQ1ALpAp9K6wAxwG/CCyjWWgHcfNP6ltGWAfw68AXgdcGyPQ0dLaevDwB8v2/afxI1TLrQgiOPo+irEcPn6VpGxxrRddjWuf5xmfzJfIpmX0tbzgT8HvuEy+pkr2k2HOLZ/0AFLaetO4H3AyyubN4CHgC8BNwAvBb6aMEm8Gnj1Utp6PfDGZdten34GWKhzRJIicSQJLRBXMEYKvk/dXP47gtqDtZZOp8NoNGI0GuG9L5uqoiEgjqruGnPcXv2uqrvOzbJs+PDDD98/GAze84UvfOG+e++9t3z47r///v976623Pr/aR/Ua431XsVffEc658vx4r5MkYWZmhtnZWf/e97737nvuuecTZ86c+eLRo0efNxqNyLKM0WhEnudkWcZwOCTLMvI859Of/vS73/72t//CIe/tp4Cvi+NYW1uj1+vR6/UYjUYMh0P6/T6f+cxnPvq2t73tNQdc6yDiTHKh/hL7E7kH/CrwGYL0fTHwj4AfIqjBB2Fzv51LaevNwH8lZKgBPA38B+APl217UDmuAfxP4F9XTr8b+Avgm6cbZ1aQYuGgWOCIgnotyx2rySMoTDGb8yiF2pOmKcePHy93xIfZWruLVNWMNREpyROPcc7hvcc5VyXTsVe96lWvBl7tnMvuvffeX3rrW9/62wA33njj0ZtuummX6jU+kcTP2Gf8rLY8zxERvPdYa3HOlZ95HkzBJEloNpscP36c3//93/+pe+655xMAt99++zEq6l+/32d9fZ1er1f+LQWhj17GvT0Sr5kkCSdPnqTf77O6usrW1hZZFjRjVV08xLWu5DUJrzhg/6PA48Anl23bAg8Cf7iUtn4H+CvgjgPOX99rx1LaehPwnsqmzwB3L9v2+bHjZoC3Aq+acJl/upS2vmm6JZDJZJU6bEuKz8oqf0Xo6npDo9Gg0ThMvsLe6PV6DIfDckLw3tNsNmfe8IY3vPMd73iH/uIv/uK7brvtNprN5mVdt6odWGux1jIajRgMBgyHQzqdDv1+n36/v2tCimS+7777fuqd73znf9vr+vPz84xGIzY2Nuj1enQ6HXq9Hv1+/xkFEefng5Dq9/tsbm7S6XTY3t4+zKlX0u/zDtj/T4APAN8N/K+4cdm2v1xI1b864PyJknkpbb2G3ba0BX5wApGfT8gp/8Z9+rh1ygv6RXe2UH2tq0mSIsMz+LARwZTOsOkEmvv9fvmA7bX/i1/8Iqurq2xvbzMYDMiyDF9krBljmJ2dpdlssri4yIkTJ7j55pu58cYbaTabLCwssLCwAMBoNMI5x8zMDGma8vrXv/6HgHcdROSLFy9y/vx5Njc36Xa7dLvdUg2O2kPUBqqSOM/zXWq2MYZms8np06d/8r3vfe/vVvtYXV3lec/b/exnWUa322V7e5utrS36/T7D4fAZ61CdToeNjQ02NjbY3t6m2+0+00vuhT8mFGLshweA/z1h+0cINu2pfc69ZBZaSls3Ab/Hbi/Qh5dt+4kJ5/8K+xN5DfjQdMksFM5sKcNSQYhouViBKXxjiE511aBHH32Ur/3ary0JBzsEfuqpp1hZWWF9fb0qmUryiAhpmtJsNksyLy4ucuTIEY4ePVq2xcVFjh07FiY0Y2g0GqRpysbGBi94wQsuGdNwOOTChQs8/fTTbG1tlWSK9uZgMNhl00bJG9X6qooOlIUus7OzrK6u/uqHPvSh3x3v84EHHuCOO+7gxIkTHDt2jF6vx4ULF+h0OnS73bJPaw//GiFrLWm6+1FcWVnh3LlzbG5ulpK517us6M7l4OeAIfBGQjipii7wm8BvLtv2JRPUsm3rUtp6mP3JfEkYCbgXODG27cE9zv+6fa59Hnjtsm1nU35xnIiYuJxICDSLCdI5SYuF8ZOwsHascZ4Wmzc2Njh37hyNRgNVpdfrcfHiRVZXV1lZWWFtbY21tTUuXLhw4amnnvpYJBEEkqRpSqPRYHZ2loWFBebn57nzzju/85Zbbrkxqqdzc3PMz8/TaDRKQqdpyunTp3nJS17Cgw8+yMmTJ0tJ2Ov12NraYmtri8FgUBLqwoUL7bNnz34yTibVVrWrq/Y1UDq9ZmdnP3rffff9zqT7MBwO2djYIM9ztre3yfOcbre7S7onSXIJOffDpGPPnDlTSuNoBsT7ebWxbNseeNtS2no7cCdwK8GG3wL+puqE2gP7ObiUMTIvpa0XAd8/4diH9rjGXxLCZeP4a+BHlm37aZh2oYUkmGLRASMJiQm/qTq/CqdXdIRNy2KOtmaUOlEKRom4vb1Np9Ph7Nmz93/iE5/4vsNc8y1vecsnTp48+c/itZMkASjLQU0xsW1uhmfl3LlzpbMqjmUwGJTSNmoA6+vrf/3+97//h6/VvfDel178KM3TNGV2NoRVnXM0m80r/letr6+zvb3NcDhkOBwSPedXicx7BjcLUj9etF1YSls3EkJeLYKNfVPRngd8+z79jYrrVvHjTJZKn9/jGr9dnFN1tP0R8MNVbWHKJZBEPRuTmh1bObAXYlZYElPDmJoDLKql0QtdbePq6mGxsLDA4uIizWaTmZmZ0vMdpWa8/nA4BIJaPxgMUFWstaV9m6Ypc3NzUapy7NixaxaNN8bs6j9NU2ZmZlhcXEREmJmZwXvP7OzsFT9bq6urpZkwHA7Lz+jVfoY40FNZJJC8smjfCLyMvUsqrwQ/tMf2iQ/3sm33l9LW9xKcbyeLzb8xrvZPNwOsWEtXBbwqeBcWvq80pbLCiE4zMhUkUjVuHENPUa2MDq7D4tixY9xwww3MzMyU14jXr04Uzu1EWyLRozSMYygIhKoyNzc3c/X+6t3I85zBYFD2G80HYwxzc3M0Gg1EhEajcXlu9wKdTocnn3yydHpVVe3R6MBMzMNgz3tTJG78CvBvgMOMPyOkWHr2t5mrfdxKSPGchBcCfz9px7JtP7yUtr4VeDvwzYSUq13Yj8xfDfxU/OG95/Tp07Tb7dJjG+3Canz1ciDo13/pzJm0rKEgPMSjUcYoG5HlGSrCbLOJSVLmFxZw3vOud73rv1xWRwV0B+K99xJc4z6CEBpw1lrvvffW2q1f+7VfK8My1WSKaNPGh7rRaNBsNktV8zCITrBI5CRJSslfjLeUvpW/oSRyNcHDOVfanq94xSte+8EPfnAYiRbHFUknImWYKssyBoNB+X+01vLxj3/8Tb/1W7/1R5PG3O/3d2kh8V7MzMwwNzfH3Nwcs7OzvOY1r3n9I4888n3Ri1/15E+ICsxAMCMeeugh2u02a2trrK+vlw69PM+vFpknSualtPXLwD1MIEkBB3wa+GjRHl627dXi3B8A/sch+/+mffZ99X4nLtv2F4Af3Wv/fmT+KuBn4g9jDKdOneLUqUsnoKqqebmEvkL8zMGHXIpob8bQTDVkE7OZop2WZRkbGxtbQEnmSGDvfSkVI7EajUYZSjos5ufnWVhYKAkBYdKMxBpHVY0fTziJDSCsqsZsNYElz/NyzPG8SObhcFjei0Ly7mkvtNvt4cLCQtl/xWnG3NwcR48e5fjx47RaLXPTTTfNzs/PHzjBra2t8eCDD3Lu3DlWVlZYXV0tJXOMCgD0er2rEZu6hMxLaes/Az+/zznvA35pPP57SIyrzi/c59ivuYLrl9jzyfvsZz/LS1/60kNdpPowXu+IDyxQknrcoRTDK5NCIVESV9XMqmS9nPswMzNTeq6rRItJG+N2eNWWHsu22pVaWfUsV8+NWWixxevHexDR6XT2jCs9/vjjr2i1Wp+31prYhzGmlMyLi4tsbm6ytbXF5uYmt99+OzfffPMl1zl37hxnzpyh3W6XBK5K406nU04yxX1fv3jx4g8c+ubujV1kXkpbXwP8u32Ov3fZtq9IeBQY59h+udz/4hn0szeZH3jgAXtYMj+bELO1IhGstaU0HgwGZYw45gNPQpRG0eMct0X7+bBI05S0CMHFiSCqy5Nyusedb3HyiaGbaotJK9XYMuykklZV9Orf1Gg0uHDhwp5jft/73vfE3XfffbOqvv/EiRPf5pwrJ7WY/NLv9+l2u2xubtJutzl27Bhzc3OICP1+n06nw9bWFuvr62xsbJRhvRgR6Ha7ZYwecIPB4E+AH//yl788PMRtPchDOi6Zf569VWsIOdnPpM9kKW1JxVm1n+r6oqW09W3Ltv3xQ/R5CfYk87lz565Zus31gCzL6PV6Zbw2ek/7/X6Z4H+5GUeXWwgSSXzJyqTshKfGbehI5Kgexwmo2+2WYbKnn3768ZWVlXdWpfS4Iy0i9h+JXNjVH9tv3B/4wAdWgW9/5StfmRLsvG82xjTi+fPz8zSbzX/5spe97HuttfR6vdIfMBwOy2yxSObHH3/8NzqdzumqZuG93wY+1W63n9LLs90OclqUz/xS2poH9pP2F5dte+Mq9Nlgp/Tyywcc+x8JZZCXjT3J3O/3RxsbGxw9evTQ0ibGH69XRFt4NBrt8pJGEg+Hw12ZU9cwffBAVNXg8W3R3h2zc0tir62tfeaBBx54zz6Xvyr4yEc+YoHHirYLb3zjG+83xnxvfCaik64qmaMU7na7v/HII49crfSuQ5OZULu8X/HG6UP2eVBRScrhyfztS2nrR5Zt+w8O2feuTiYiz/PRxYsXWVtbK9MQozc0EiI+9DGXODqXrldEqRaJECVBVLOjpIsqalXNrsZWgSg9dqmtl+v8i8SM51XHFj8n7a+mZMbvVxLnvpaYm5uThYWFMlQ1buvH79cAB4WUqs/8QeGkA+uQD3mdxcq1/rb4vneiPywvpa3Hlm37gcN0Xqxq8q17kllE8q2tLYBdDpOqNKiGpcbraa9HjJcdjpM6z/PSexqlXUT1eO99OZFFm7RKsMMiniciZVFGnFzitaMnGtjVX7z31TTNaLtejkf9WiEmxIzHzaNvIDr9Zmauekh87oD91ZtzULXUeJ72JSiW93nDAYfdBVwEWLbtzlLa+nPgB/c5vgn81VLa+v5l2/6LA/pfIBSK3L3nf11VfafTKR+4qrSID/s4kb+CoakrQhwj7PZkR2dL1SM8bjJUUyfzPN9lZ0dHU8VpcyjECSNK/ejUiuOIJI0aQq/Xo9FoXOKBr9rFMeY9bSRJIpGo8V7HZyX+XTGsd8stB3LmcnDrAfurz/zDBxx711Laai3b9n6rfv4ClxZMjOPrgKpT67+zP5khSPMPLKWtPwOWgY8t2/YIykUKTgHfU/R/C+D2JXNMpI8PV3xgq4R+tpG56kyqxpur5K56fiN6vR6bm5ul4yl6bKPzqVoPfFjE4ojxyqbxyXJjI/hgVldXy21x8omTSbVa6Xr4H3jvZdzrXo0WxHFfzuR3EJbS1iJw/IDDqg6gTx1wrBBW/Pi3E/pKCJVPP3mIoY1XPX2YUCTxHQeclxDWAnsdoEtp6wJh1ZPbudREfveeZG40Gtrtdnclu8ekimrBwdgqGdeV3TaOcTOgWtdb3QaUySER0eSID2Ukc7Ww3zm3SzU/CNvb26ysrJS2evUeVyfLGCqKpY5xUqp6q+MncFkTyrWCc05jrLgaPouTX8w6u8r4x4c4pkynW7bts0tp66Psv9LIm4sii48SUi3nCMsGvZnDJ3m8uPqjKJv8UcJkcmlt62TE1T4n4cvAr+xJ5izLNN70OJPGBy4+bOPq0/UumSPGEydgJ6xUtT2rf8vq6mq5Mkcs/I/5wvFeiEhZFHEYrK+vMzMzU0qr2GKyRLy3sWrq7NmzNJvNcuzVksZqvvZVKkh4RhgMBrqyslKSNz5LsWiiujzR+fNXklg1ES8/+BBeNPb7Bwjru+23ltdri3alePH4hmXbfmopbb2SsH7XM8n8+hTwmmXbXt3XUxJn0qgeVb2+ValclczXM5n3W/AuxnknJYQA5eod1ZBWnNRi4kSSJJdF5kjS6oIG1QUFIpmjzbyyslLaw+P3O9rKMzMz16zu93IQyRyX+4kTVbXOO8a2ryIOkyH2g4TF8wBYtu0LS2nrdcCfEdbKvhx0ivMywhsn90JrKW3NRpu30vcTS2nrZcA7gJ9gnyKQCegSbOl/H6+7J5mPHz++9rnPfe67JqnW47bllap1N9xwQ2tubu5W55xWvczjNFQZoAAAAUdJREFUMdbqOlbGGHq93t9dUYdjY53k9Y3bZmdnSdO0ZGa73f6Jfr9/S6/X22XXxnsQJ4DZ2dlHDjuWTqfzs+fPn7+zWuI3HA4vybW21n4JYHNz803GmOcBu/qNn7H6qtlsXvH9uVpwzn3psccee3001cbvWfRoNxoN7rrrrsPPgPvjtvFhEFYQGREWslfg9qW0dWrZtr8UD1q27fuX0taLCdlgk1YbqWJEcGa9n7B6ZmcpbX0LQeLPEDzRs8X3RtFygjr9xfGLFYvj//RS2vpPwI8RaqO/hcnx7z5hiaI/AN69bNtb1Z1yPUvSGjUuB8UKlkcJBB4WK2le7jUSgtr7Dwm1w0cJErgNnCNUS12z9YuKMaQEtX+RUEftgDPLtr2y33k1mWvUeI6gfj9EjRrPEdRkrlHjOYKazDVqPEdQk7lGjecI/h9SA3QBTyIjSwAAAABJRU5ErkJggg==;clipPath=inset(0% 68.93% 13.19% 1.44%);" vertex="1" parent="1">
          <mxGeometry width="91.13924050632912" height="100" as="geometry" />
        </mxCell>
      </root>
    </mxGraphModel>
  </diagram>
</mxfile>
